<?xml version="1.0" encoding="UTF-8"?>
<svg width="1264px" height="1026px" viewBox="0 0 1264 1026" version="1.1" xmlns="http://www.w3.org/2000/svg" xmlns:xlink="http://www.w3.org/1999/xlink">
    <title>duckmole works promptx3 en</title>
    <defs>
        <filter x="-0.4%" y="-1.2%" width="100.9%" height="102.4%" filterUnits="objectBoundingBox" id="filter-1">
            <feGaussianBlur stdDeviation="1" in="SourceGraphic"></feGaussianBlur>
        </filter>
        <filter x="-0.0%" y="-0.0%" width="100.0%" height="100.0%" filterUnits="objectBoundingBox" id="filter-2">
            <feGaussianBlur stdDeviation="0" in="SourceGraphic"></feGaussianBlur>
        </filter>
        <filter x="0.0%" y="-0.0%" width="100.0%" height="100.0%" filterUnits="objectBoundingBox" id="filter-3">
            <feGaussianBlur stdDeviation="0" in="SourceGraphic"></feGaussianBlur>
        </filter>
        <filter x="-3.2%" y="-1.4%" width="104.9%" height="102.8%" filterUnits="objectBoundingBox" id="filter-4">
            <feGaussianBlur stdDeviation="0" in="SourceGraphic"></feGaussianBlur>
        </filter>
    </defs>
    <g id="页面-1" stroke="none" stroke-width="1" fill="none" fill-rule="evenodd">
        <path d="M632,1025 C670.539552,1025 708.084563,1020.74187 744.19023,1012.67041 C972.996619,961.520501 1144,757.23024 1144,513 C1144,230.230208 914.769792,1 632,1 C349.230208,1 120,230.230208 120,513 C120,795.769792 349.230208,1025 632,1025 Z" id="椭圆形" stroke="#979797"></path>
        <path d="M698.660634,127.597263 C738.329492,136.877413 775.895742,152.476624 785.373182,156.92906 C806.068939,166.651786 839.99331,186.410908 887.146295,216.206426 C960.591714,225.356534 1010.52588,234.747761 1036.94879,244.380106 C1040.41601,245.644063 1046.5968,247.411164 1052.60313,251.001596 C1059.93164,255.382387 1067.00042,261.767988 1068.56357,264.377562 C1071.15387,268.701887 1075.62976,275.908895 1076.46628,281.246072 C1077.50235,287.856385 1077.41035,292.76142 1076.72801,299.563772 C1075.06923,316.100273 1069.92164,330.978078 1069.0103,333.373683 C1068.2351,335.411419 1065.50863,342.607851 1060.156,350.787713 C1056.47445,356.413856 1051.55053,362.505235 1045.16466,367.703293 C1040.35125,371.621375 1034.70722,375.031914 1028.13855,377.353107 C1021.01038,379.872008 1012.79334,381.108091 1003.36725,380.317867 C997.610265,379.835237 991.313939,378.02355 984.228178,375.312604 C960.140365,366.096834 926.929529,346.488897 874.770346,333.373683 C863.55388,330.553348 836.790653,336.935806 823.645861,343.611727 C815.961608,347.514373 802.443362,352.103047 793.106615,355.132906 C792.202105,355.426428 792.536682,345.327822 792.380619,347.688877 C792.161474,351.004274 791.132548,355.487139 790.415487,355.858902 C785.099223,358.615139 779.651728,361.180969 778.441205,367.726971 C776.439886,378.549263 784.774968,402.269924 784.357738,413.853668 C784.290123,415.73087 784.661456,417.289334 783.919966,418.422516 C780.947049,422.965878 779.597006,431.759226 776.437305,438.35261 C774.701845,441.974016 773.731803,447.123784 768.299895,448.349129 C766.174516,448.828578 767.235617,438.146128 764.938751,438.35261 C763.884949,438.447343 761.335664,438.359582 759.91188,438.35261 C758.520853,438.345798 748.527525,452.322548 747.129404,452.26347 C745.42434,452.191421 744.711855,437.143965 743.551796,437.035797 C741.239888,436.820229 743.107766,437.276858 740.93411,437.035797 C738.655764,436.783126 730.412167,445.548133 728.374348,445.337372 C725.897383,445.081193 728.186435,437.851105 725.953927,437.035797 C723.905634,436.287765 725.861116,435.972144 724.076103,434.844806 C722.295517,433.720264 712.112114,438.450882 710.64819,437.035797 C709.187786,435.624116 713.977269,427.758054 713.557225,425.091602 C713.233393,423.03591 714.150193,421.823144 713.557225,420.503146 C712.062458,417.175666 702.488548,421.786557 702.848384,418.422516 C702.908344,417.86196 703.808438,413.702025 705.51239,408.699916 C706.196711,406.691026 706.834931,404.040664 708.811154,402.211282 C711.260498,399.943934 723.247491,389.132452 731.109501,377.257787 C737.263558,367.962786 738.651077,357.075227 735.98999,355.374068 C735.271531,354.914777 721.91614,329.8245 719.796099,329.743702 C719.094545,329.716965 727.610035,343.090725 731.109501,350.36573 C732.310912,352.863332 733.548367,355.361287 733.287489,355.374068 C731.485509,355.462348 726.082493,358.296478 719.567441,359.980438 C711.384387,362.095531 701.446993,363.234784 694.687197,364.336473 C683.865127,366.100218 670.705276,368.426769 656.969515,369.840085 C647.200384,370.845263 604.629178,369.885812 599.622805,369.175665 C579.110325,366.265998 560.674217,361.476329 557.571662,359.477055 C555.634629,358.228837 551.407737,357.473683 548.880562,353.875388 C545.901795,349.634098 546.897178,349.107319 546.384497,349.082816 C544.515554,348.993493 547.087383,352.18124 547.935067,357.70924 C548.563588,361.808016 546.066257,364.943129 542.286091,368.452967 C540.852122,369.784388 538.98597,370.399379 536.82726,372.640023 C536.21427,373.27628 533.649763,375.123694 530.325154,377.097685 C527.751922,378.625546 524.723336,379.503238 521.791827,380.679862 C519.419759,381.631942 518.436698,381.422437 517.030176,381.982538 C515.937575,382.417631 514.242289,384.185967 513.666222,385.301977 C513.100099,386.398725 512.769447,387.632167 512.646835,388.624709 C512.550641,389.403398 512.695465,392.126449 511.227272,397.485491 C509.418799,404.086591 505.914018,411.382597 505.57917,412.525186 C501.324503,427.043238 492.419313,447.839562 490.666723,448.349129 C488.241543,449.054253 488.093456,439.724039 485.586014,440.679193 C483.675891,441.406812 479.708534,450.114353 478.61977,450.442963 C478.38123,450.514959 474.724341,454.777863 473.17028,454.618437 C472.303584,454.529526 472.418875,438.962887 469.051421,438.35261 C467.241213,438.024549 468.1752,437.439599 466.24736,437.035797 C463.998892,436.564838 453.655008,446.431975 451.392689,445.863645 C449.682239,445.433952 448.298081,447.532398 446.658706,447.050104 C444.845107,446.516554 453.031636,435.439339 451.392689,434.844806 C450.057393,434.360423 450.681946,431.863393 449.518046,431.340678 C445.256333,429.426717 430.180333,437.212441 429.772872,434.844806 C429.542395,433.505576 437.328728,424.734594 436.432016,422.773269 C435.675454,421.118488 437.427008,420.291995 436.432016,418.422516 C435.370323,416.427713 428.807249,422.496705 427.728061,420.503146 C426.541535,418.311305 435.69106,402.714679 436.432016,402.211282 C438.228355,400.990869 446.12757,388.661432 458.235773,380.500305 C468.844414,373.349907 483.815523,364.813191 485.586014,362.158426 C486.080994,361.416229 489.574603,348.318349 490.187953,344.3216 C490.879779,339.81349 481.508122,334.984538 470.7219,331.865376 C460.30197,328.852139 451.522583,330.86411 448.836694,336.277667 C446.865236,340.251248 435.372022,348.344687 425.738019,354.40691 C422.236321,356.610363 418.406693,360.373361 415.276745,359.780526 C414.524848,359.638111 417.707587,350.329078 415.276745,350.36573 C413.950814,350.385723 407.423547,357.792402 405.830403,357.945073 C405.135031,358.011711 400.446701,359.831267 399.753793,359.780526 C397.540111,359.618417 404.805982,346.968348 403.792279,345.452836 C402.532934,343.570082 389.356583,355.928553 390.220508,354.40691 C391.757332,351.700082 393.308379,345.479283 396.755337,340.206198 C397.786147,338.629286 400.821698,333.784931 405.830403,331.061218 C413.375209,326.958384 421.276155,322.564755 419.895878,320.289335 C419.023395,318.851025 405.47619,314.603046 391.332206,314.312764 C378.406276,314.04748 364.981928,313.329904 360.277716,313.236049 C358.835412,313.207274 348.675644,314.061591 338.31247,314.198104 C327.097716,314.345835 315.644753,315.229156 314.743731,315.207362 C309.700896,315.085388 290.530087,318.386147 287.245759,319.563338 C280.222513,322.080658 283.976959,316.776504 277.744932,319.379999 C276.125753,320.056428 272.37264,321.84984 269.911603,323.486891 C266.895963,325.492857 263.8373,329.505823 263.29367,329.743702 C261.411581,330.567258 259.585405,334.828647 257.530514,336.90391 C256.404654,338.040932 248.224859,348.485043 245.576667,350.36573 C244.17817,351.358912 238.801143,359.089187 233.799577,363.70089 C229.556802,367.612949 225.584206,369.918598 224.539576,371.051007 C222.950294,372.773833 218.599273,376.285975 213.980441,377.257787 C207.24928,378.674036 199.94934,381.498728 199.799555,381.457378 C197.138424,380.722745 184.250172,378.606699 183.754607,378.322316 C180.671992,376.553344 176.468616,373.947111 173.674285,371.050861 C173.234002,370.59452 167.118947,362.289863 167.017862,361.504512 C166.597554,358.239025 166.217806,355.500629 167.16138,349.172224 C167.792229,344.941223 167.894683,344.062287 168.634192,342.114597 C169.338926,340.258496 184.344234,321.514842 188.907523,319.044018 C193.44491,316.587218 196.182667,312.377905 200.262712,308.842063 C204.536602,305.138231 210.113378,302.095531 213.092923,299.061986 C217.259244,294.820156 223.948375,287.057466 224.511331,281.892466 C224.900062,278.325948 224.411072,273.507558 225.473214,270.921601 C226.177641,269.20656 227.84612,260.286876 233.799577,247.604793 C234.430241,246.261351 242.349163,241.651624 245.576667,238.413021 C251.312406,232.657561 253.815283,227.320215 256.830751,224.455719 C264.565468,217.108245 293.408325,197.081641 314.743731,188.34186 C321.483568,185.58097 351.634236,169.599569 360.277716,166.072598 C369.052896,162.491887 384.237125,156.298532 405.830403,147.492534 L466.24736,131.347534 L496.872298,124.993748 C524.22032,121.457745 543.188192,119.452804 553.775916,118.978927 C583.18164,117.662809 665.658327,119.876689 698.660634,127.597263 Z" id="多边形" stroke="#000000" stroke-width="2" fill="#000000" filter="url(#filter-1)"></path>
        <path d="M640.801258,366.232575 C685.138077,370.111544 722.029194,362.408682 723.199874,349.02775 C724.370554,335.646818 689.377484,321.654903 645.040664,317.775934 C600.703845,313.896965 563.812728,321.599828 562.642048,334.98076 C561.471368,348.361692 596.464438,362.353606 640.801258,366.232575 Z" id="椭圆形" stroke="#979797" fill="#FFFFFF"></path>
        <path d="M430.47906,337.209471 C420.375541,343.152597 414.904636,346.605607 414.066346,347.568502 C413.006894,348.785434 411.781996,350.044176 410.27601,350.939156 C409.232579,351.559249 408.054212,353.675331 406.702448,354.387054 C406.338552,354.578651 405.075199,355.400066 402.91239,356.851301 C404.486253,353.827328 405.494197,351.99928 405.936223,351.367158 C407.194885,349.567199 408.082711,347.595725 408.599699,346.904728 C408.921936,346.474034 413.31272,341.295195 414.178723,340.113455 C415.003895,338.987432 417.473293,336.45184 421.586918,332.506679 C416.212222,334.636063 412.85799,336.035965 411.524222,336.706387 C410.436268,337.253249 408.952923,338.19143 407.909152,338.754206 C406.711657,339.399866 405.082415,340.316714 403.638386,341.021852 C402.744571,341.458313 401.333278,343.12347 399.404508,344.565331 C398.648318,345.130625 397.335065,345.910424 395.464749,346.904728 L399.683814,340.256137 L402.854498,336.195548 L406.130078,333.375156 L412.334317,329.177687 L422.034083,322.467323 L431.813573,322.467323 C439.29547,325.930975 443.036419,329.277427 443.036419,332.506679 C443.036419,335.155637 442.697146,338.318025 437.662623,343.445833 C436.927366,344.194714 434.009688,345.619514 428.909588,347.720232 L423.439051,352.181475 L417.332811,357.945073 C417.761015,356.702408 418.068545,355.82525 418.255402,355.313598 C418.712316,354.062473 419.096825,353.102821 419.40893,352.434642 C420.2792,350.5715 421.638248,349.000029 422.034083,347.720232 C422.50309,346.203856 425.259211,344.142291 427.398461,341.535538 C428.220661,340.533658 429.247527,339.091635 430.47906,337.209471 Z" id="星形" stroke="#979797" fill="#FFFFFF"></path>
        <path d="M477.889254,396.842529 C469.889593,401.682069 465.330075,404.797275 464.210698,406.188147 C462.871672,407.851944 461.162652,407.978856 457.973074,410.847869 C454.708811,413.784061 451.414629,418.728688 450.012901,419.686851 C447.695321,421.271053 445.334711,424.753145 443.820685,425.047963 C443.493747,425.111626 442.289503,427.275364 440.207952,428.635192 C439.234213,429.271312 437.235552,430.499741 434.211969,432.320478 C435.370342,429.896776 436.493256,428.110136 437.580711,426.960559 C438.138432,426.370978 439.820969,422.559998 441.594453,420.010532 C443.80555,416.831977 446.158014,414.809334 446.648263,414.098497 C448.942923,410.771347 463.477209,393.222112 462.894581,393.02663 C461.612958,392.596622 448.113934,401.942372 445.22238,404.180846 C442.697937,406.135124 440.204297,410.372107 438.866546,410.942973 C437.676329,411.450881 434.953983,413.380222 430.699509,416.730994 C432.986599,411.477745 434.641417,408.151541 435.663962,406.752383 C438.932259,402.280339 441.651167,400.438396 443.820685,398.322569 C447.008362,395.21378 451.103941,391.567647 456.107423,387.384169 C465.730274,381.847141 471.811916,378.658793 474.352351,377.819127 C482.027064,375.282475 484.551776,376.959812 488.823365,377.819127 C490.000139,378.055859 501.197709,381.009127 505.28898,388.481787 C509.420589,396.028126 506.434557,408.097096 505.218392,408.861258 C504.478135,409.32639 504.228956,412.784532 502.36695,417.010557 C500.935804,420.258698 499.053709,424.686464 497.4364,427.83153 C495.78715,431.038708 495.865239,433.666978 495.525663,434.64496 C493.71525,439.858972 491.564394,443.498279 490.909891,444.575279 C490.810286,444.739182 489.491264,441.423912 489.767917,436.943298 C489.897053,434.85183 489.317185,432.506451 489.457899,430.142489 C489.58928,427.935338 490.441937,425.711988 490.545645,423.663972 C490.81672,418.310794 495.286946,409.073557 494.918724,409.536653 C494.389442,410.202307 489.830983,412.609183 487.532711,416.659488 C486.150347,419.095664 484.797721,421.137752 483.895543,423.900504 C482.994783,426.658916 482.086049,430.114838 481.306878,433.121566 C480.459551,436.391301 479.765445,439.12982 479.401436,439.862412 C478.104316,442.472952 476.904737,445.444301 475.802699,448.77646 C475.221527,445.900395 474.738078,441.648657 474.352351,436.021246 C474.324198,435.610517 474.139391,432.000536 474.719094,428.380266 C475.200119,425.376242 476.433658,422.365133 476.664442,421.16889 C477.161072,418.594655 478.810362,413.265251 481.612312,405.180677 C478.667074,408.920149 476.337356,411.841005 474.623159,413.943243 C472.428297,416.634954 469.860403,419.725328 468.371469,422.581666 C466.291664,426.571516 463.448559,427.926735 462.746138,429.278894 C462.014395,430.687497 458.470061,435.630358 456.469114,438.299508 C455.217261,439.969408 453.065191,442.061332 450.012901,444.575279 L452.753115,438.060861 L454.612381,432.057449 L457.924429,423.776939 L461.853193,416.349105 L466.8864,409.155756 L477.889254,396.842529 Z" id="星形" stroke="#979797" fill="#FFFFFF"></path>
        <path d="M752.877766,391.310982 L737.789386,395.452277 L727.944665,399.621847 L718.65326,402.991424 L710.950024,403.717421 L702.944304,403.717421 C707.514469,401.097226 710.472583,399.47126 711.818648,398.839524 C715.517521,397.103566 717.511852,396.745894 717.801641,396.314515 C718.112132,395.852321 721.588871,393.700479 725.907231,391.310982 C727.901049,390.207734 730.074277,389.625058 732.198119,388.110961 C733.393528,387.258747 735.593381,387.937229 738.797678,385.790427 C740.136861,384.893208 744.830223,383.792511 752.877766,382.488338 L737.439768,380.030526 L732.668513,380.709168 L726.0037,381.036346 L718.885522,381.435164 L706.810722,382.16116 L713.216904,378.811784 L718.397355,376.43988 C721.051055,375.409048 722.918624,374.767804 724.000064,374.51615 C725.815432,374.093709 727.323448,373.698523 728.524113,373.330594 C731.934429,372.285543 738.214265,370.375338 741.727437,370.308124 C749.538304,370.158685 762.378068,373.133391 764.089758,373.527148 C769.66035,374.808607 775.09564,378.848052 780.395629,385.645484 C782.810876,391.649308 784.05116,395.582099 784.116481,397.443858 C784.288603,402.349639 783.926674,403.789612 783.299613,405.438272 C782.472419,407.613123 778.295991,412.8417 776.911434,415.057086 C774.416485,419.049172 771.638048,419.685667 771.016645,420.667892 C768.643092,424.419668 761.642517,429.067889 759.501775,431.570246 C756.692081,434.854557 751.747138,438.135751 749.206335,440.129696 C742.573873,445.334652 735.586157,446.1444 735.298167,446.686305 C735.245017,446.786316 738.664985,444.024937 741.622673,440.009904 C742.941353,438.219807 745.908761,436.180508 747.529503,434.034493 C749.071282,431.993031 750.708374,429.854998 752.362089,427.743054 C753.51304,426.273185 755.398039,424.815953 756.538565,423.41271 C759.393505,419.90014 764.871977,408.602373 764.730136,406.807153 C764.642648,405.699848 760.167954,412.705699 758.335132,413.954297 C754.7396,416.40373 753.482388,419.216315 750.201893,421.41872 C743.401986,425.98393 736.385332,430.577852 734.933949,431.235119 C732.757264,432.220844 730.809967,433.031196 727.550579,434.389773 C724.517546,435.654001 720.153664,437.490288 718.460814,437.859706 C716.852045,438.210775 721.316088,434.127376 725.444172,429.713937 C725.704806,429.435287 728.589604,427.617623 732.30964,424.965428 C736.004807,422.330964 738.355766,421.041403 739.09015,420.306277 C739.61393,419.781967 747.113786,414.058415 752.877766,407.491597 C754.516205,405.624946 756.335328,403.001696 758.335132,399.621847 C753.172982,402.783234 749.343745,405.07646 746.84742,406.501525 C738.510887,411.260561 733.721461,414.048706 732.479143,414.865962 C731.303904,415.63909 723.013948,418.919854 721.74363,419.580281 C719.456191,420.7695 715.446549,422.001491 709.714706,423.276254 L719.861672,414.652044 L729.988507,406.044944 L740.347173,398.474895 L752.877766,391.310982 Z" id="星形" stroke="#979797" fill="#FFFFFF" transform="translate(743.551796, 408.495809) scale(-1, 1) rotate(-90.000000) translate(-743.551796, -408.495809) "></path>
        <path d="M186.500687,342.838461 C188.595398,346.97964 191.509706,349.766781 193.009976,349.063714 C194.510246,348.360648 194.028355,344.433612 191.933644,340.292433 C189.838933,336.151255 186.924625,333.364114 185.424355,334.06718 C183.924085,334.770246 184.405975,338.697283 186.500687,342.838461 Z" id="椭圆形" fill="#FFFFFF" filter="url(#filter-2)"></path>
        <path d="M204.469328,351.795391 C199.879722,350.744884 195.857585,351.181769 195.485632,352.771201 C195.11368,354.360633 198.532763,356.500727 203.122369,357.551234 C207.711974,358.601741 211.734112,358.164856 212.106064,356.575424 C212.478017,354.985992 209.058934,352.845898 204.469328,351.795391 Z" id="椭圆形" fill="#FFFFFF" filter="url(#filter-3)"></path>
        <path d="M230.641874,250.595779 C235.568786,248.679173 238.823901,247.817272 240.407218,248.010075 C243.531172,248.390485 244.586921,252.204706 246.151549,252.63828 C247.978132,253.144446 251.256867,254.648687 254.960699,257.982976 C256.459337,259.332091 260.388431,265.230551 264.092596,270.050709 C267.796761,274.870867 267.518968,278.545546 268.161114,279.240323 C272.012878,283.407785 272.076213,281.9959 275.908044,286.234368 C277.77252,288.296704 279.810744,293.546952 282.600525,299.53868 C284.82816,304.323061 282.600525,310.300531 282.600525,314.791316 C282.600525,318.168608 281.515232,319.857253 279.344646,319.857253 L274.774142,303.592678 L268.161114,293.13274 L261.111481,287.715152 L252.892284,282.79851 C248.645427,280.261689 244.483738,278.611133 240.407218,277.846841 C236.330698,277.082549 231.365258,277.547043 225.510898,279.240323 C227.253587,275.522828 228.124931,272.459623 228.124931,270.050709 C228.124931,268.58934 227.18817,264.763234 227.805702,260.30168 C228.072638,258.373113 229.018029,255.137812 230.641874,250.595779 Z" id="三角形" stroke="#000000" stroke-width="2" fill="#FFFFFF" filter="url(#filter-4)"></path>
        <path d="M315.145178,235.474413 C315.479632,235.682309 315.632154,235.83702 315.64224,235.914633 C315.670462,236.131818 314.774687,237.217719 313.340225,238.380997 C312.047293,239.4295 310.560765,240.521961 310.032947,240.772012 C309.402648,241.070613 308.140665,242.093928 306.234712,243.819714 C306.224243,243.829194 306.213796,243.838657 306.203173,243.847825 C306.192586,243.854684 306.181985,243.86156 306.171367,243.868453 C304.589946,244.895101 303.489861,245.755945 302.8807,246.460969 C301.635081,247.902613 300.725561,249.47897 300.152253,250.470178 C299.800471,251.078383 299.541236,251.482057 299.407513,251.594562 C298.519558,252.341619 297.188901,253.116235 296.676126,253.36764 C295.559682,253.915014 294.078203,254.368332 292.643244,254.74805 C292.009328,254.915797 291.384882,255.069444 290.806906,255.211244 C290.136041,255.375834 288.961763,255.365207 287.854288,255.346818 C286.973327,255.33219 286.138647,255.30936 285.706163,255.410674 C284.68406,255.650112 283.50703,256.33381 282.273927,257.038628 C281.349002,257.567298 280.395324,258.11115 279.453737,258.519144 C278.589905,258.893447 277.758379,259.38731 276.952105,259.864669 C276.498506,260.133224 276.052738,260.396984 275.613968,260.633982 C274.800343,261.073453 274.007707,261.41937 273.234323,261.555738 C273.112238,261.577265 273.025488,261.554952 272.965857,261.533338 C272.910437,261.51325 272.836645,261.478617 272.762328,261.397759 L272.762328,261.397759 L272.699637,261.314878 C272.641702,261.218144 272.636686,261.139478 272.633432,261.092556 C272.628969,261.028194 272.619547,260.904219 272.740799,260.737366 C272.769246,260.69822 272.825222,260.634246 272.910459,260.5516 C273.049948,260.41635 273.295188,260.198312 273.612569,259.916631 C274.517383,259.113593 276.027996,257.773988 277.299118,256.361586 C278.317573,255.229934 279.124404,254.042809 279.757932,253.112294 C280.273835,252.354544 280.687463,251.759774 281.005185,251.463267 C281.669447,250.843359 282.550043,249.453269 283.667164,247.311091 L283.667164,247.311091 L283.684041,247.278716 C283.987374,246.696719 284.980609,244.799756 285.964067,243.659594 C286.88409,242.592976 287.810615,241.643693 288.192399,241.422069 C289.110737,240.888978 289.879347,240.758238 290.502869,240.656085 C290.772589,240.611896 291.009643,240.578036 291.211457,240.496841 C292.210572,240.094872 294.562146,240.100164 296.558959,240.15887 C296.782854,240.165453 297.002015,240.172415 297.213825,240.179144 C298.264952,240.212538 299.126885,240.24902 299.441953,240.187041 C299.633358,240.149388 299.906455,240.103982 300.252044,240.046674 C301.422995,239.852499 303.448147,239.516918 305.948526,238.859879 C306.989281,238.586394 308.181688,238.168738 309.347716,237.722341 L309.347716,237.722341 L309.852003,237.526972 C310.874626,237.126324 311.858697,236.714955 312.68516,236.369504 C313.446173,236.05141 314.075603,235.788595 314.483012,235.638611 C314.671366,235.56927 314.818729,235.522399 314.917553,235.499567 C315.017051,235.476579 315.093636,235.47211 315.145178,235.474413 Z" id="三角形" stroke="#000000" fill="#FFFFFF"></path>
        <circle id="椭圆形" fill="#000000" transform="translate(291.901855, 249.076756) rotate(-10.000000) translate(-291.901855, -249.076756) " cx="291.901855" cy="249.076756" r="5.44497062"></circle>
        <text id="DUCKMOLE-WORKS" font-family="PingFangSC-Semibold, PingFang SC" font-size="72" font-weight="500" letter-spacing="1.89090909">
            <tspan x="272.103636" y="818" fill="#000000">DUCKMOLE </tspan>
            <tspan x="731.561818" y="818" fill="#009B4C">WORKS</tspan>
        </text>
        <text id="PromptX3" font-family="PingFangSC-Semibold, PingFang SC" font-size="150" font-weight="500" letter-spacing="3.93939394">
            <tspan x="260.667424" y="644" fill="#009B4C">P</tspan>
            <tspan x="362.856818" y="644" fill="#000000">rompt</tspan>
            <tspan x="805.853788" y="644" fill="#009B4C">X</tspan>
            <tspan x="909.393182" y="644" fill="#000000">3</tspan>
        </text>
    </g>
</svg>